<?xml version="1.0" standalone="no"?>
<!DOCTYPE svg PUBLIC "-//W3C//DTD SVG 20010904//EN"
 "http://www.w3.org/TR/2001/REC-SVG-20010904/DTD/svg10.dtd">
<svg version="1.0" xmlns="http://www.w3.org/2000/svg"
 width="800.000000pt" height="800.000000pt" viewBox="0 0 800.000000 800.000000"
 preserveAspectRatio="xMidYMid meet">
<metadata>
Created by potrace 1.11, written by Peter Selinger 2001-2013
</metadata>
<g transform="translate(0.000000,800.000000) scale(0.100000,-0.100000)"
fill="#000000" stroke="none">
<path d="M5635 6569 c-104 -9 -254 -38 -418 -83 -54 -15 -137 -56 -197 -96
-60 -41 -124 -80 -132 -80 -4 0 -30 -16 -57 -35 -26 -19 -51 -35 -55 -35 -4 0
-30 -17 -59 -38 -29 -22 -57 -41 -62 -43 -6 -2 -97 -62 -204 -134 -229 -154
-237 -160 -276 -181 -16 -9 -32 -20 -35 -23 -3 -4 -30 -22 -60 -40 -30 -19
-57 -37 -60 -40 -3 -4 -30 -22 -60 -40 -30 -19 -57 -36 -60 -40 -6 -8 -118
-82 -148 -98 -13 -7 -40 -25 -60 -41 -21 -15 -50 -34 -66 -42 -17 -8 -41 -25
-54 -37 -14 -13 -31 -23 -38 -23 -8 0 -14 -3 -14 -7 0 -5 -30 -26 -66 -48 -36
-22 -89 -58 -117 -80 -58 -45 -83 -61 -112 -74 -11 -5 -50 -29 -86 -53 -35
-25 -69 -47 -74 -49 -14 -5 -159 -101 -165 -108 -6 -7 -239 -163 -255 -171
-19 -10 -130 -85 -143 -98 -8 -6 -23 -17 -35 -23 -29 -15 -220 -141 -227 -149
-3 -4 -31 -25 -62 -49 -31 -23 -73 -66 -92 -95 -44 -63 -94 -199 -98 -264 -4
-77 43 -476 63 -532 4 -14 13 -65 19 -115 7 -49 16 -117 21 -150 5 -33 13
-100 18 -150 10 -91 22 -180 41 -290 5 -33 10 -66 10 -72 0 -12 -40 -41 -113
-82 -82 -46 -228 -131 -265 -155 -23 -14 -44 -26 -47 -26 -2 0 -34 -18 -70
-40 -36 -22 -67 -40 -70 -40 -4 0 -71 -40 -130 -78 -11 -6 -27 -15 -35 -19 -8
-4 -50 -28 -92 -54 -87 -53 -182 -93 -248 -106 -44 -9 -44 -9 -21 -22 20 -11
33 -9 100 14 42 15 117 51 166 80 50 29 106 61 125 72 32 18 125 73 168 98 9
6 60 34 112 64 52 29 106 61 120 71 14 9 48 30 75 45 28 15 85 47 127 72 98
56 121 55 129 -7 4 -25 14 -70 24 -100 9 -30 23 -80 32 -110 8 -30 21 -62 29
-71 8 -8 14 -19 14 -23 0 -4 11 -22 25 -40 14 -18 25 -36 25 -41 0 -14 108
-142 137 -163 15 -11 60 -36 98 -57 83 -45 172 -131 203 -196 53 -109 54 -269
2 -378 -79 -166 -82 -186 -43 -269 58 -122 190 -116 277 13 21 30 26 50 26 96
0 51 -7 71 -50 154 -63 120 -67 177 -20 277 58 120 77 143 160 191 30 18 63
37 72 42 9 6 45 27 80 47 35 20 72 46 82 57 11 12 25 21 32 21 12 0 90 43 146
82 15 10 29 18 32 18 2 0 40 22 83 48 43 27 85 52 93 56 23 11 52 29 87 54 17
12 33 22 36 22 3 0 46 26 96 58 51 31 111 68 134 81 23 13 74 45 112 69 39 25
90 56 115 70 104 56 199 124 202 145 2 18 9 21 35 19 29 -3 57 9 128 56 11 7
28 15 38 18 9 4 17 10 17 15 0 5 4 9 10 9 5 0 69 37 142 82 73 44 147 89 163
99 17 11 37 22 45 26 8 3 39 21 68 40 29 18 54 33 56 33 3 0 32 18 65 40 33
22 62 40 64 40 7 0 200 119 211 130 7 7 3 10 -12 10 -25 0 -28 18 -8 46 12 15
18 17 33 8 10 -7 17 -19 15 -28 -3 -19 21 -21 40 -3 8 6 25 18 38 26 81 47
333 199 378 228 52 33 52 34 36 58 -9 14 -20 25 -24 25 -18 0 -60 128 -60 185
0 44 21 112 46 150 15 23 14 29 -5 87 -15 44 -21 87 -21 148 0 137 36 220 131
303 l52 45 14 107 c13 107 23 136 72 209 27 41 153 136 180 136 27 0 81 39 91
66 15 39 109 146 160 183 82 58 135 89 163 96 45 12 50 35 23 107 -27 72 -64
145 -76 153 -5 3 -33 42 -63 88 -75 111 -133 176 -277 312 -105 99 -263 198
-385 240 -53 18 -64 22 -137 54 -89 39 -193 51 -343 40z m860 -718 c5 -4 74
-58 153 -121 171 -135 172 -138 76 -206 -40 -29 -95 -84 -144 -144 -60 -74
-92 -104 -127 -121 -27 -13 -81 -57 -125 -102 -90 -92 -142 -187 -154 -282 -8
-65 -20 -91 -70 -145 -43 -47 -72 -100 -101 -190 -29 -89 -27 -160 7 -234 l21
-48 -21 -69 c-23 -76 -27 -141 -16 -236 11 -86 5 -86 -142 2 -10 6 -51 29 -93
52 -107 59 -172 113 -190 159 -49 120 -51 172 -8 279 31 76 31 77 15 120 -22
56 -23 184 -3 250 22 73 84 183 132 235 36 40 43 54 49 105 21 190 143 351
328 433 40 17 51 29 84 92 31 60 50 81 108 125 39 29 80 55 91 58 25 7 116 -2
130 -12z m-2511 -522 c-7 -11 -34 -12 -34 -1 0 14 11 21 26 15 8 -3 11 -9 8
-14z m-997 -765 c-3 -3 -12 -4 -19 -1 -8 3 -5 6 6 6 11 1 17 -2 13 -5z m2008
-34 c-5 -8 -11 -8 -17 -2 -6 6 -7 16 -3 22 5 8 11 8 17 2 6 -6 7 -16 3 -22z
m-612 -592 c27 -20 11 -60 -22 -56 -40 5 -40 67 0 68 3 0 13 -6 22 -12z m229
-34 c3 -3 4 -14 1 -25 -7 -26 -53 -27 -53 -1 0 10 3 22 7 25 8 8 38 9 45 1z
m-852 -49 c0 -8 -7 -15 -15 -15 -8 0 -15 7 -15 15 0 8 7 15 15 15 8 0 15 -7
15 -15z m430 -85 c0 -5 -7 -10 -15 -10 -8 0 -15 5 -15 10 0 6 7 10 15 10 8 0
15 -4 15 -10z m714 -135 c-8 -21 -31 -25 -45 -8 -11 13 -10 17 6 29 21 16 47
2 39 -21z m-526 -348 c4 -32 -16 -44 -47 -27 -24 12 -27 30 -9 48 22 22 53 10
56 -21z m-1090 -71 c-2 -15 -10 -21 -28 -21 -20 0 -26 6 -28 27 -2 19 2 27 15
30 25 6 45 -11 41 -36z m1092 -86 c0 -5 -4 -10 -10 -10 -5 0 -10 5 -10 10 0 6
5 10 10 10 6 0 10 -4 10 -10z m-180 -180 c0 -5 -2 -10 -4 -10 -3 0 -8 5 -11
10 -3 6 -1 10 4 10 6 0 11 -4 11 -10z m-1439 -1527 c-9 -16 -10 -14 -11 12 0
21 3 26 11 18 8 -8 8 -16 0 -30z"/>
</g>
</svg>
